# xmcd CD database file
#
# Track frame offsets:
#	150
#	20537
#	45659
#	73676
#	97943
#	121895
#	144652
#	166154
#	188291
#	212338
#	239155
#	261222
#	282804
#
# Disc length: 4057 seconds
#
# Revision: 0
# Processed by: cddbd v1.5.1PL0 Copyright (c) Steve Scherf et al.
# Submitted via: CDex 1.51
#
DISCID=b00fd70d
DTITLE=India - Con los mejores exitos
DYEAR=1900
DGENRE=Salsa
TTITLE0=Ceduceme
TTITLE1=Megamix
TTITLE2=Vivir lo nuestro
TTITLE3=Sola
TTITLE4=Mi mayor venganza
TTITLE5=Nunca voy a olvidarte
TTITLE6=Ese hombre
TTITLE7=Que ganas de no verte
TTITLE8=Me canse de ser la otra
TTITLE9=Costumbre
TTITLE10=Ella y yo
TTITLE11=Dicen que soy
TTITLE12=Hazme el amor
EXTD=
EXTT0=
EXTT1=
EXTT2=
EXTT3=
EXTT4=
EXTT5=
EXTT6=
EXTT7=
EXTT8=
EXTT9=
EXTT10=
EXTT11=
EXTT12=
PLAYORDER=
